# xmcd
#
# Track frame offsets:
#	180
#	17227
#	36945
#	49503
#	65577
#	90450
#	109252
#	125212
#	147825
#	182516
#	209217
#	226383
#
# Disc length: 3213 seconds
#
# Revision: 0
# Processed by: cddbd v1.5PL3 Copyright (c) Steve Scherf et al.
# Submitted via: dBpowerAMP V4.0
#
DISCID=b00c8b0c
DTITLE=Rock of Ages Bluesband - Come Home
DYEAR=1994
DGENRE=Blues
TTITLE0=Strange Things
TTITLE1=Go Ahead
TTITLE2=Jazztime
TTITLE3=Big Surprise
TTITLE4=Come Home
TTITLE5=He's Almighty
TTITLE6=Strong Desire
TTITLE7=Suffering and Pain
TTITLE8=The Mirror
TTITLE9=Complete Release of Tensions
TTITLE10=Lord wash me
TTITLE11=This Train
EXTD=great blues album in the old style with only drum,upright bass and guitar/voice.the band is from the Netherlands.
EXTT0=
EXTT1=
EXTT2=
EXTT3=
EXTT4=
EXTT5=
EXTT6=
EXTT7=
EXTT8=
EXTT9=
EXTT10=
EXTT11=
PLAYORDER=
